<?xml version="1.0" encoding="UTF-8" standalone="no"?><!DOCTYPE svg PUBLIC "-//W3C//DTD SVG 1.1//EN" "http://www.w3.org/Graphics/SVG/1.1/DTD/svg11.dtd"><svg width="100%" height="100%" viewBox="0 0 16 16" version="1.1" xmlns="http://www.w3.org/2000/svg" xmlns:xlink="http://www.w3.org/1999/xlink" xml:space="preserve" xmlns:serif="http://www.serif.com/" style="fill-rule:evenodd;clip-rule:evenodd;stroke-linejoin:round;stroke-miterlimit:2;"><path d="M8,0c-4.42,0 -8,3.58 -8,8c0,3.54 2.29,6.53 5.47,7.59c0.4,0.07 0.55,-0.17 0.55,-0.38c0,-0.19 -0.01,-0.82 -0.01,-1.49c-2.01,0.37 -2.53,-0.49 -2.69,-0.94c-0.09,-0.23 -0.48,-0.94 -0.82,-1.13c-0.28,-0.15 -0.68,-0.52 -0.01,-0.53c0.63,-0.01 1.08,0.58 1.23,0.82c0.72,1.21 1.87,0.87 2.33,0.66c0.07,-0.52 0.28,-0.87 0.51,-1.07c-1.78,-0.2 -3.64,-0.89 -3.64,-3.95c0,-0.87 0.31,-1.59 0.82,-2.15c-0.08,-0.2 -0.36,-1.02 0.08,-2.12c0,0 0.67,-0.21 2.2,0.82c0.64,-0.18 1.32,-0.27 2,-0.27c0.68,0 1.36,0.09 2,0.27c1.53,-1.04 2.2,-0.82 2.2,-0.82c0.44,1.1 0.16,1.92 0.08,2.12c0.51,0.56 0.82,1.27 0.82,2.15c0,3.07 -1.87,3.75 -3.65,3.95c0.29,0.25 0.54,0.73 0.54,1.48c0,1.07 -0.01,1.93 -0.01,2.2c0,0.21 0.15,0.46 0.55,0.38c0,0 5.455,-1.903 5.45,-7.59c-0.005,-5.712 -4.947,-8 -8,-8Z" style="fill-rule:nonzero;"/></svg>