<?xml version="1.0" encoding="UTF-8" standalone="no"?>
<!DOCTYPE svg PUBLIC "-//W3C//DTD SVG 1.1//EN" "http://www.w3.org/Graphics/SVG/1.1/DTD/svg11.dtd">
<svg width="100%" height="100%" viewBox="0 0 50 50" version="1.1" xmlns="http://www.w3.org/2000/svg" xmlns:xlink="http://www.w3.org/1999/xlink" xml:space="preserve" xmlns:serif="http://www.serif.com/" style="fill-rule:evenodd;clip-rule:evenodd;stroke-linejoin:round;stroke-miterlimit:2;">
    <g id="light" transform="matrix(1.78571,0,0,1.78571,0,0)">
        <rect x="0" y="0" width="28" height="28" style="fill:none;"/>
        <g transform="matrix(0.84,0,0,0.84,2.24,6.0118)">
            <g transform="matrix(0.666667,0,0,0.666667,0,0)">
                <circle cx="21" cy="9.424" r="11.576" style="fill:rgb(190,190,190);"/>
            </g>
            <g transform="matrix(0.666667,0,0,0.666667,0.660879,0)">
                <path d="M26.043,18.622C26.043,18.622 22.135,19.877 20.124,19.877C18.113,19.877 13.974,18.622 13.974,18.622C13.974,18.622 15.59,29.907 16.303,30.682C17.042,31.486 22.721,31.427 23.398,30.682C24.136,29.867 26.043,18.622 26.043,18.622Z" style="fill:rgb(135,135,135);"/>
            </g>
        </g>
        <g transform="matrix(0.56,0,0,0.56,2.24,2.24)">
            <path d="M27.153,8.576C29.241,10.126 30.783,12.172 30.701,14.28C28.542,11.153 27.915,10.328 23.717,9.04C25.258,8.941 26.491,8.987 27.153,8.576Z" style="fill:rgb(243,243,243);"/>
        </g>
        <g>
            <g transform="matrix(0.56,0,0,0.56,0,0)">
                <path d="M2.878,11.561L11.903,14.9C11.689,15.529 11.52,16.179 11.399,16.846L1.91,13.336C2.21,12.73 2.533,12.139 2.878,11.561Z" style="fill:rgb(233,233,233);"/>
            </g>
            <g transform="matrix(0.56,0,0,0.56,0,0)">
                <path d="M14.172,1.374L17.953,7.516C17.374,7.853 16.822,8.232 16.301,8.648L12.387,2.29C12.969,1.963 13.564,1.657 14.172,1.374Z" style="fill:rgb(233,233,233);"/>
            </g>
            <g transform="matrix(0.56,0,0,0.56,0,0)">
                <path d="M36.777,1.803C37.374,2.109 37.958,2.438 38.527,2.788L34.049,9.31C33.56,8.855 33.036,8.436 32.484,8.056L36.777,1.803Z" style="fill:rgb(233,233,233);"/>
            </g>
            <g transform="matrix(0.56,0,0,0.56,0,0)">
                <path d="M47.526,12.138C47.856,12.724 48.165,13.324 48.449,13.938L38.268,17.366C38.173,16.693 38.028,16.037 37.839,15.4L47.526,12.138Z" style="fill:rgb(233,233,233);"/>
            </g>
        </g>
    </g>
</svg>
