<?xml version="1.0" encoding="UTF-8" standalone="no"?>
<!DOCTYPE svg PUBLIC "-//W3C//DTD SVG 1.1//EN" "http://www.w3.org/Graphics/SVG/1.1/DTD/svg11.dtd">
<svg width="100%" height="100%" viewBox="0 0 50 50" version="1.1" xmlns="http://www.w3.org/2000/svg" xmlns:xlink="http://www.w3.org/1999/xlink" xml:space="preserve" xmlns:serif="http://www.serif.com/" style="fill-rule:evenodd;clip-rule:evenodd;stroke-linejoin:round;stroke-miterlimit:2;">
    <g id="Artboard1" transform="matrix(1.78571,0,0,1.78571,0,0)">
        <rect x="0" y="0" width="28" height="28" style="fill:none;"/>
        <clipPath id="_clip1">
            <rect x="0" y="0" width="28" height="28"/>
        </clipPath>
        <g clip-path="url(#_clip1)">
            <g transform="matrix(0.84,0,0,0.84,2.24,6.0118)">
                <g transform="matrix(0.666667,0,0,0.666667,0,0)">
                    <circle cx="21" cy="9.424" r="11.576" style="fill:rgb(230,230,230);"/>
                </g>
                <g transform="matrix(0.666667,0,0,0.666667,0.660879,0)">
                    <path d="M26.043,18.622L13.974,18.622L16.303,30.682L23.398,30.682L26.043,18.622Z" style="fill:rgb(218,218,218);"/>
                </g>
            </g>
            <g transform="matrix(0.56,0,0,0.56,2.24,2.24)">
                <path d="M27.153,8.576C29.241,10.126 30.783,12.172 30.701,14.28C28.542,11.153 27.915,10.328 23.717,9.04C25.258,8.941 26.491,8.987 27.153,8.576Z" style="fill:rgb(243,243,243);"/>
            </g>
            <g>
                <g transform="matrix(0.56,0,0,0.56,0,0)">
                    <path d="M37.839,15.4L84.679,-0.37C84.845,-0.413 84.736,-0.434 85.121,-0.415C86.048,-0.228 86.253,1.13 85.317,1.525L38.268,17.366C38.173,16.693 38.028,16.037 37.839,15.4Z" style="fill:rgb(191,191,191);"/>
                </g>
                <g transform="matrix(0.56,0,0,0.56,0,0)">
                    <path d="M32.484,8.056L54.851,-24.523C55.197,-24.962 55.35,-24.959 55.754,-24.954C56.465,-24.851 56.905,-24.073 56.5,-23.391L34.049,9.31C33.56,8.855 33.036,8.436 32.484,8.056Z" style="fill:rgb(191,191,191);"/>
                </g>
                <g transform="matrix(0.56,0,0,0.56,0,0)">
                    <path d="M16.301,8.648L1.94,-14.68C1.576,-15.357 2.038,-16.226 2.88,-16.2C3.367,-16.129 3.383,-16.101 3.644,-15.728L17.953,7.516C17.374,7.853 16.822,8.232 16.301,8.648Z" style="fill:rgb(191,191,191);"/>
                </g>
                <g transform="matrix(0.56,0,0,0.56,0,0)">
                    <path d="M11.399,16.846L-13.579,7.606C-14.488,7.206 -14.338,5.611 -13.119,5.674C-13.001,5.695 -13.001,5.695 -12.885,5.73L11.903,14.9C11.689,15.529 11.52,16.179 11.399,16.846Z" style="fill:rgb(191,191,191);"/>
                </g>
            </g>
        </g>
    </g>
</svg>
