<?xml version="1.0" encoding="UTF-8" standalone="no"?><!DOCTYPE svg PUBLIC "-//W3C//DTD SVG 1.1//EN" "http://www.w3.org/Graphics/SVG/1.1/DTD/svg11.dtd"><svg width="100%" height="100%" viewBox="0 0 24 21" version="1.1" xmlns="http://www.w3.org/2000/svg" xmlns:xlink="http://www.w3.org/1999/xlink" xml:space="preserve" xmlns:serif="http://www.serif.com/" style="fill-rule:evenodd;clip-rule:evenodd;stroke-linejoin:round;stroke-miterlimit:2;"><rect id="Artboard1" x="0" y="0" width="24" height="20.049" style="fill:none;"/><clipPath id="_clip1"><rect x="0" y="0" width="24" height="20.049"/></clipPath><g clip-path="url(#_clip1)"><path d="M22.197,16.039l-0.233,0l0,-0.472l0.295,0c0.153,0 0.327,0.025 0.327,0.225c0,0.228 -0.176,0.247 -0.389,0.247Zm0.231,0.14c0.236,-0.029 0.359,-0.159 0.359,-0.376c0,-0.266 -0.161,-0.394 -0.492,-0.394l-0.531,0l0,1.396l0.2,0l0,-0.608l0.247,0l0.005,0.007l0.384,0.601l0.213,0l-0.411,-0.622l0.026,-0.004Z" style="fill:#efefef;fill-rule:nonzero;"/><path d="M22.22,17.256c-0.632,0 -1.128,-0.499 -1.128,-1.147c0,-0.648 0.496,-1.148 1.128,-1.148c0.632,0 1.127,0.5 1.127,1.148c0,0.648 -0.495,1.147 -1.127,1.147Zm0,-2.468c-0.742,0 -1.323,0.58 -1.323,1.321c0,0.741 0.581,1.32 1.323,1.32c0.74,0 1.321,-0.579 1.321,-1.32c0,-0.741 -0.581,-1.321 -1.321,-1.321Z" style="fill:#efefef;fill-rule:nonzero;"/><path d="M18.566,20.049l-17.087,0c-0.816,0 -1.479,-0.648 -1.479,-1.446l0,-17.157c0,-0.799 0.663,-1.446 1.479,-1.446l17.087,0c0.817,0 1.483,0.647 1.483,1.446l0,17.157c0,0.798 -0.666,1.446 -1.483,1.446Zm-10.753,-12.533l0,9.568l2.97,0l0,-4.732c0,-1.248 0.236,-2.458 1.783,-2.458c1.526,0 1.545,1.428 1.545,2.537l0,4.653l2.974,0l0,-5.247c0,-2.577 -0.557,-4.558 -3.567,-4.558c-1.447,0 -2.417,0.793 -2.814,1.545l-0.041,0l0,-1.308l-2.85,0Zm-1.866,0l-2.976,0l0,9.568l2.976,0l0,-9.568Zm-1.487,-4.756c0.951,0 1.723,0.773 1.723,1.725c0,0.952 -0.772,1.724 -1.723,1.724c-0.955,0 -1.725,-0.772 -1.725,-1.724c0,-0.952 0.77,-1.725 1.725,-1.725Z" style="fill:#efefef;"/></g></svg>