<?xml version="1.0" encoding="UTF-8" standalone="no"?>
<!DOCTYPE svg PUBLIC "-//W3C//DTD SVG 1.1//EN" "http://www.w3.org/Graphics/SVG/1.1/DTD/svg11.dtd">
<svg width="100%" height="100%" viewBox="0 0 50 50" version="1.1" xmlns="http://www.w3.org/2000/svg" xmlns:xlink="http://www.w3.org/1999/xlink" xml:space="preserve" xmlns:serif="http://www.serif.com/" style="fill-rule:evenodd;clip-rule:evenodd;stroke-linejoin:round;stroke-miterlimit:2;">
    <rect id="Artboard1" x="0" y="0" width="50" height="50" style="fill:none;"/>
    <clipPath id="_clip1">
        <rect id="Artboard11" serif:id="Artboard1" x="0" y="0" width="50" height="50"/>
    </clipPath>
    <g clip-path="url(#_clip1)">
        <g transform="matrix(1.34249,0,0,1.34249,-6.44531,-9.95715)">
            <path d="M21.592,8.251L21.707,8.252L21.823,8.254L21.939,8.258L22.055,8.262L22.171,8.267L22.288,8.273L22.404,8.28L22.521,8.289L22.638,8.298L22.755,8.308L22.872,8.319L22.989,8.331L23.107,8.344L23.224,8.358L23.341,8.373L23.465,8.39L23.588,8.407L23.71,8.426L23.831,8.445L23.952,8.465L24.073,8.485L24.193,8.506L24.312,8.528L24.431,8.551L24.549,8.575L24.667,8.599L24.784,8.624L24.901,8.65L25.017,8.676L25.133,8.703L25.248,8.731L25.362,8.76L25.476,8.789L25.589,8.819L25.702,8.849L25.814,8.881L25.926,8.913L26.037,8.946L26.147,8.979L26.257,9.013L26.367,9.048L26.476,9.083L26.584,9.119L26.692,9.156L26.799,9.193L26.905,9.231L27.011,9.27L27.117,9.309L27.222,9.349L27.326,9.39L27.43,9.431L27.533,9.473L27.636,9.515L27.738,9.558L27.839,9.602L27.94,9.646L28.041,9.691L28.141,9.736L28.24,9.782L28.339,9.829L28.437,9.876L28.534,9.924L28.631,9.972L28.728,10.021L28.824,10.07L28.919,10.12L29.014,10.17L29.108,10.222L29.201,10.273L29.294,10.325L29.387,10.378L29.479,10.431L29.57,10.485L29.661,10.539L29.751,10.593L29.84,10.649L29.929,10.704L30.018,10.76L30.106,10.817L30.193,10.874L30.28,10.932L30.366,10.99L30.452,11.049L30.537,11.108L30.621,11.167L30.705,11.227L30.788,11.287L30.871,11.348L30.953,11.409L31.035,11.471L31.116,11.533L31.196,11.595L31.276,11.658L31.356,11.722L31.435,11.785L31.513,11.85L31.591,11.914L31.668,11.979L31.744,12.044L31.82,12.11L31.896,12.176L31.971,12.242L32.045,12.309L32.119,12.376L32.192,12.444L32.238,12.487L32.264,12.512L32.336,12.58L32.408,12.649L32.479,12.718L32.549,12.787L32.62,12.858L32.756,12.997L32.892,13.138L33.025,13.281L33.157,13.425L33.286,13.57L33.412,13.716L33.537,13.863L33.66,14.011L33.78,14.16L33.898,14.309L34.014,14.46L34.128,14.612L34.24,14.764L34.35,14.917L34.458,15.071L34.563,15.226L34.667,15.381L34.768,15.537L34.868,15.694L34.965,15.851L35.061,16.008L35.154,16.166L35.246,16.325L35.335,16.484L35.422,16.643L35.508,16.803L35.591,16.963L35.673,17.123L35.752,17.284L35.83,17.444L35.905,17.605L35.979,17.767L36.051,17.928L36.121,18.089L36.189,18.251L36.255,18.412L36.319,18.573L36.382,18.735L36.443,18.896L36.501,19.057L36.558,19.218L36.613,19.379L36.667,19.54L36.718,19.701L36.768,19.861L36.816,20.021L36.862,20.181L36.906,20.34L36.948,20.499L36.989,20.658L37.028,20.816L37.066,20.974L37.101,21.131L37.135,21.288L37.167,21.445L37.197,21.6L37.226,21.756L37.253,21.91L37.278,22.064L37.302,22.217L37.324,22.37L37.344,22.522L37.362,22.673L37.379,22.823L37.394,22.973L37.408,23.122L37.419,23.27L37.43,23.417L37.438,23.563L37.445,23.709L37.45,23.853L37.453,23.997L37.455,24.139L37.455,24.281L37.454,24.421L37.451,24.561L37.446,24.7L37.439,24.837L37.431,24.974L37.421,25.106L37.411,25.227L37.4,25.346L37.389,25.465L37.377,25.584L37.364,25.704L37.351,25.825L37.336,25.945L37.321,26.066L37.305,26.187L37.288,26.309L37.27,26.431L37.252,26.553L37.232,26.676L37.212,26.798L37.191,26.921L37.168,27.044L37.145,27.168L37.121,27.291L37.096,27.415L37.069,27.538L37.042,27.662L37.014,27.786L36.985,27.91L36.954,28.035L36.923,28.159L36.89,28.283L36.856,28.407L36.821,28.531L36.785,28.656L36.748,28.78L36.709,28.904L36.67,29.028L36.629,29.152L36.586,29.276L36.543,29.399L36.498,29.523L36.452,29.646L36.405,29.769L36.356,29.892L36.305,30.015L36.254,30.137L36.201,30.26L36.146,30.381L36.091,30.503L36.033,30.624L35.974,30.745L35.914,30.865L35.852,30.985L35.789,31.105L35.724,31.224L35.657,31.342L35.589,31.46L35.52,31.578L35.448,31.695L35.375,31.811L35.301,31.927L35.224,32.042L35.146,32.156L35.066,32.27L34.985,32.383L34.902,32.495L34.817,32.607L34.73,32.717L34.642,32.827L34.552,32.936L34.459,33.044L34.366,33.151L34.27,33.257L34.172,33.362L34.073,33.466L33.972,33.569L33.869,33.671L33.764,33.772L33.657,33.871L33.549,33.97L33.438,34.067L33.326,34.163L33.281,34.2L33.211,34.258L33.095,34.351L32.977,34.443L32.857,34.534L32.735,34.623L32.611,34.711L32.485,34.797L32.357,34.882L32.228,34.966L32.096,35.048L31.963,35.128L31.827,35.207L31.69,35.284L31.551,35.36L31.41,35.434L31.267,35.507L31.122,35.578L30.975,35.647L30.827,35.715L30.676,35.78L30.523,35.844L30.369,35.907L30.213,35.967L30.055,36.026L29.894,36.083L29.732,36.139L29.568,36.192L29.402,36.244L29.235,36.293L29.065,36.341L28.893,36.387L28.72,36.431L28.544,36.474L28.366,36.514L28.187,36.552L28.005,36.589L27.822,36.623L27.637,36.656L27.449,36.686L27.26,36.715L27.068,36.742L26.875,36.766L26.68,36.789L26.482,36.81L26.283,36.828L26.081,36.845L25.877,36.859L25.672,36.871L25.464,36.882L25.254,36.89L25.041,36.896L24.877,36.899L24.713,36.899L24.549,36.898L24.386,36.894L24.223,36.888L24.06,36.879L23.898,36.869L23.736,36.856L23.575,36.842L23.415,36.825L23.255,36.806L23.196,36.798L23.095,36.785L22.936,36.761L22.778,36.736L22.62,36.709L22.463,36.679L22.306,36.648L22.15,36.615L21.995,36.579L21.841,36.542L21.687,36.503L21.534,36.463L21.381,36.42L21.23,36.375L21.079,36.329L20.929,36.281L20.779,36.231L20.631,36.179L20.483,36.126L20.336,36.071L20.19,36.014L20.045,35.955L19.901,35.895L19.758,35.834L19.615,35.77L19.473,35.705L19.333,35.638L19.193,35.57L19.055,35.5L18.917,35.429L18.78,35.356L18.644,35.282L18.51,35.206L18.376,35.129L18.243,35.05L18.112,34.97L17.981,34.889L17.852,34.806L17.723,34.721L17.596,34.635L17.47,34.548L17.345,34.46L17.221,34.37L17.098,34.279L16.977,34.187L16.857,34.093L16.737,33.998L16.62,33.902L16.503,33.804L16.388,33.706L16.273,33.606L16.161,33.505L16.049,33.403L15.939,33.299L15.83,33.195L15.722,33.089L15.616,32.983L15.511,32.875L15.428,32.787L15.408,32.766L15.306,32.655L15.206,32.544L15.107,32.431L15.01,32.317L14.914,32.203L14.82,32.087L14.727,31.971L14.635,31.853L14.546,31.735L14.457,31.615L14.371,31.495L14.286,31.374L14.202,31.252L14.12,31.129L14.04,31.005L13.961,30.88L13.884,30.754L13.809,30.628L13.735,30.501L13.663,30.373L13.593,30.244L13.524,30.115L13.458,29.984L13.393,29.853L13.329,29.722L13.268,29.589L13.209,29.456L13.151,29.322L13.095,29.188L13.041,29.053L12.989,28.917L12.939,28.78L12.891,28.644L12.845,28.506L12.801,28.368L12.759,28.229L12.719,28.09L12.681,27.95L12.645,27.81L12.611,27.669L12.579,27.528L12.55,27.387L12.522,27.245L12.497,27.102L12.474,26.959L12.453,26.816L12.434,26.673L12.418,26.529L12.404,26.385L12.392,26.24L12.383,26.095L12.375,25.95L12.371,25.805L12.368,25.66L12.368,25.514L12.37,25.418L12.371,25.369L12.376,25.223L12.384,25.077L12.395,24.933L12.408,24.777L12.423,24.624L12.44,24.472L12.458,24.32L12.477,24.17L12.498,24.021L12.521,23.872L12.545,23.725L12.571,23.579L12.598,23.433L12.626,23.289L12.656,23.146L12.688,23.004L12.721,22.862L12.755,22.722L12.791,22.583L12.828,22.445L12.867,22.308L12.907,22.172L12.949,22.038L12.991,21.904L13.036,21.771L13.081,21.64L13.128,21.509L13.176,21.38L13.226,21.252L13.277,21.125L13.329,20.999L13.382,20.874L13.437,20.75L13.493,20.628L13.551,20.506L13.609,20.386L13.669,20.267L13.73,20.149L13.793,20.033L13.856,19.917L13.921,19.803L13.987,19.69L14.054,19.578L14.122,19.467L14.192,19.357L14.262,19.249L14.334,19.142L14.407,19.036L14.481,18.932L14.556,18.828L14.632,18.726L14.709,18.625L14.787,18.526L14.867,18.427L14.947,18.33L15.028,18.235L15.111,18.14L15.194,18.047L15.279,17.955L15.364,17.865L15.45,17.775L15.538,17.687L15.626,17.601L15.715,17.515L15.76,17.474L15.805,17.432L15.897,17.349L15.989,17.268L16.082,17.189L16.176,17.111L16.271,17.034L16.366,16.958L16.463,16.884L16.56,16.811L16.658,16.74L16.757,16.67L16.856,16.601L16.957,16.534L17.058,16.468L17.159,16.404L17.262,16.341L17.365,16.279L17.469,16.219L17.574,16.161L17.679,16.103L17.785,16.047L17.891,15.993L17.998,15.94L18.106,15.888L18.214,15.838L18.323,15.789L18.433,15.742L18.543,15.696L18.654,15.652L18.765,15.609L18.876,15.567L18.989,15.527L19.101,15.489L19.214,15.452L19.328,15.416L19.442,15.382L19.557,15.349L19.672,15.318L19.787,15.289L19.903,15.26L20.019,15.234L20.136,15.209L20.253,15.185L20.37,15.163L20.487,15.142L20.605,15.123L20.724,15.105L20.842,15.089L20.961,15.074L21.08,15.061L21.2,15.049L21.319,15.039L21.439,15.03L21.56,15.023L21.68,15.018L21.8,15.013L21.921,15.011L22.042,15.01L22.163,15.01L22.285,15.012L22.406,15.016L22.528,15.021L22.649,15.028L22.771,15.036L22.893,15.046L23.015,15.057L23.137,15.07L23.278,15.086L23.417,15.105L23.554,15.125L23.691,15.146L23.826,15.17L23.959,15.195L24.092,15.222L24.222,15.25L24.352,15.28L24.48,15.312L24.607,15.345L24.732,15.38L24.856,15.417L24.979,15.455L25.1,15.494L25.22,15.535L25.338,15.578L25.455,15.622L25.571,15.668L25.685,15.715L25.798,15.763L25.91,15.813L26.02,15.864L26.128,15.917L26.236,15.971L26.342,16.026L26.446,16.082L26.549,16.14L26.651,16.199L26.751,16.26L26.85,16.321L26.947,16.384L27.043,16.448L27.138,16.513L27.231,16.58L27.323,16.647L27.414,16.716L27.503,16.785L27.59,16.856L27.677,16.928L27.762,17.001L27.845,17.075L27.927,17.149L28.008,17.225L28.087,17.302L28.165,17.379L28.242,17.458L28.317,17.537L28.391,17.617L28.463,17.698L28.534,17.78L28.604,17.863L28.672,17.946L28.739,18.03L28.805,18.115L28.87,18.201L28.933,18.287L28.994,18.374L29.055,18.462L29.114,18.55L29.171,18.639L29.228,18.728L29.283,18.818L29.337,18.909L29.389,19L29.441,19.092L29.491,19.184L29.539,19.276L29.587,19.37L29.633,19.463L29.678,19.557L29.722,19.651L29.764,19.746L29.805,19.841L29.845,19.937L29.884,20.032L29.922,20.129L29.958,20.225L29.993,20.322L30.027,20.419L30.06,20.516L30.092,20.613L30.122,20.711L30.151,20.809L30.176,20.894L30.179,20.907L30.206,21.005L30.231,21.104L30.255,21.202L30.278,21.301L30.3,21.4L30.321,21.499L30.341,21.598L30.359,21.697L30.377,21.796L30.393,21.895L30.408,21.994L30.422,22.093L30.435,22.192L30.447,22.291L30.458,22.39L30.468,22.489L30.476,22.588L30.484,22.686L30.491,22.785L30.496,22.883L30.5,22.982L30.504,23.08L30.506,23.177L30.507,23.275L30.508,23.372L30.507,23.47L30.505,23.567L30.502,23.663L30.498,23.76L30.493,23.856L30.487,23.952L30.48,24.047L30.472,24.142L30.463,24.237L30.453,24.331L30.442,24.425L30.431,24.519L30.418,24.612L30.404,24.705L30.389,24.797L30.373,24.889L30.356,24.98L30.338,25.072L30.315,25.179L30.29,25.287L30.263,25.395L30.233,25.503L30.201,25.611L30.166,25.719L30.129,25.827L30.091,25.934L30.049,26.041L30.006,26.147L29.961,26.254L29.913,26.359L29.864,26.465L29.812,26.569L29.758,26.673L29.702,26.776L29.645,26.879L29.585,26.98L29.523,27.081L29.459,27.181L29.393,27.279L29.326,27.377L29.256,27.474L29.184,27.569L29.111,27.663L29.036,27.756L28.959,27.847L28.88,27.936L28.84,27.981L28.799,28.025L28.758,28.069L28.717,28.112L28.675,28.155L28.632,28.197L28.589,28.239L28.546,28.281L28.502,28.322L28.458,28.362L28.414,28.402L28.369,28.442L28.323,28.481L28.278,28.52L28.231,28.558L28.185,28.596L28.138,28.633L28.09,28.67L28.042,28.706L27.994,28.741L27.945,28.776L27.896,28.811L27.846,28.845L27.796,28.878L27.746,28.911L27.695,28.943L27.644,28.975L27.593,29.006L27.541,29.036L27.488,29.066L27.436,29.095L27.383,29.123L27.329,29.151L27.275,29.178L27.221,29.204L27.167,29.23L27.112,29.255L27.056,29.279L27.001,29.303L26.945,29.326L26.889,29.348L26.832,29.37L26.775,29.39L26.718,29.41L26.66,29.43L26.602,29.448L26.543,29.466L26.485,29.482L26.426,29.499L26.366,29.514L26.307,29.528L26.247,29.542L26.187,29.555L26.126,29.567L26.065,29.578L26.004,29.588L25.943,29.597L25.881,29.606L25.819,29.613L25.757,29.62L25.694,29.626L25.632,29.631L25.568,29.635L25.505,29.638L25.442,29.64L25.378,29.641L25.314,29.642L25.249,29.641L25.185,29.639L25.12,29.637L25.055,29.633L24.99,29.629L24.932,29.624L24.874,29.619L24.817,29.613L24.759,29.606L24.702,29.599L24.645,29.591L24.589,29.583L24.533,29.575L24.477,29.565L24.421,29.555L24.366,29.545L24.311,29.534L24.256,29.522L24.201,29.51L24.147,29.498L24.093,29.484L24.04,29.471L23.986,29.456L23.934,29.442L23.881,29.426L23.828,29.41L23.776,29.394L23.725,29.377L23.673,29.359L23.622,29.341L23.571,29.323L23.521,29.303L23.471,29.284L23.421,29.264L23.371,29.243L23.322,29.222L23.274,29.2L23.225,29.178L23.177,29.155L23.129,29.132L23.082,29.108L23.035,29.084L22.988,29.059L22.942,29.033L22.896,29.008L22.85,28.981L22.805,28.954L22.76,28.927L22.715,28.899L22.671,28.871L22.627,28.842L22.584,28.813L22.541,28.783L22.498,28.753L22.455,28.722L22.413,28.691L22.372,28.659L22.331,28.627L22.29,28.594L22.249,28.561L22.209,28.528L22.17,28.494L22.131,28.459L22.092,28.424L22.053,28.389L22.015,28.353L21.978,28.316L21.94,28.279L21.904,28.242L21.867,28.204L21.831,28.166L21.795,28.128L21.76,28.089L21.726,28.049L21.691,28.009L21.657,27.969L21.624,27.928L21.591,27.887L21.558,27.845L21.526,27.803L21.494,27.76L21.463,27.717L21.432,27.674L21.401,27.63L21.371,27.586L21.341,27.541L21.312,27.496L21.283,27.45L21.255,27.404L21.227,27.358L21.2,27.311L21.173,27.264L21.146,27.217L21.12,27.169L21.095,27.12L21.069,27.071L21.045,27.022L21.02,26.973L20.997,26.923L20.973,26.872L20.95,26.822L20.928,26.77L20.906,26.719L20.884,26.667L20.863,26.615L20.843,26.562L20.823,26.509L20.803,26.455L20.784,26.402L20.765,26.347L20.747,26.293L20.73,26.238L20.712,26.183L20.696,26.127L20.679,26.071L20.664,26.014L20.648,25.957L20.634,25.9L20.619,25.843L20.606,25.785L20.592,25.727L20.579,25.668L20.567,25.609L20.555,25.55L20.544,25.49L20.523,25.37L20.508,25.275L20.504,25.248L20.487,25.125L20.473,25L20.495,25.123L20.52,25.245L20.526,25.272L20.546,25.365L20.574,25.484L20.589,25.542L20.604,25.6L20.62,25.658L20.636,25.716L20.652,25.773L20.669,25.829L20.687,25.885L20.705,25.941L20.723,25.996L20.742,26.051L20.761,26.105L20.781,26.159L20.801,26.213L20.822,26.266L20.843,26.319L20.864,26.371L20.886,26.423L20.909,26.474L20.932,26.525L20.955,26.575L20.978,26.625L21.002,26.675L21.027,26.724L21.052,26.773L21.077,26.821L21.103,26.869L21.129,26.916L21.155,26.963L21.182,27.01L21.21,27.056L21.237,27.101L21.265,27.146L21.294,27.191L21.323,27.235L21.352,27.279L21.382,27.322L21.412,27.365L21.442,27.407L21.473,27.449L21.504,27.491L21.535,27.532L21.567,27.572L21.6,27.612L21.632,27.652L21.665,27.691L21.699,27.729L21.732,27.767L21.766,27.805L21.801,27.842L21.835,27.879L21.871,27.915L21.906,27.951L21.942,27.986L21.978,28.021L22.014,28.056L22.051,28.089L22.088,28.123L22.126,28.156L22.164,28.188L22.202,28.22L22.24,28.252L22.279,28.283L22.318,28.313L22.357,28.343L22.397,28.373L22.437,28.402L22.477,28.43L22.518,28.458L22.559,28.486L22.6,28.513L22.642,28.539L22.684,28.565L22.726,28.591L22.768,28.616L22.811,28.641L22.854,28.665L22.897,28.688L22.941,28.712L22.985,28.734L23.029,28.756L23.074,28.778L23.118,28.799L23.163,28.82L23.209,28.84L23.254,28.859L23.3,28.878L23.346,28.897L23.393,28.915L23.439,28.933L23.486,28.95L23.534,28.966L23.581,28.982L23.629,28.998L23.677,29.013L23.725,29.027L23.774,29.041L23.822,29.055L23.871,29.068L23.921,29.08L23.97,29.092L24.02,29.103L24.07,29.114L24.12,29.125L24.171,29.134L24.221,29.144L24.272,29.152L24.324,29.161L24.375,29.168L24.427,29.175L24.479,29.182L24.531,29.188L24.583,29.194L24.636,29.199L24.688,29.203L24.741,29.207L24.795,29.211L24.848,29.214L24.902,29.216L24.956,29.218L25.01,29.219L25.069,29.22L25.128,29.219L25.187,29.218L25.245,29.216L25.303,29.213L25.361,29.21L25.418,29.205L25.475,29.2L25.531,29.194L25.587,29.187L25.643,29.179L25.699,29.17L25.754,29.161L25.809,29.151L25.863,29.14L25.917,29.129L25.971,29.116L26.025,29.103L26.078,29.089L26.131,29.075L26.183,29.06L26.235,29.044L26.287,29.027L26.338,29.01L26.389,28.992L26.44,28.973L26.49,28.954L26.54,28.934L26.59,28.913L26.639,28.892L26.688,28.87L26.737,28.847L26.785,28.824L26.833,28.8L26.881,28.776L26.928,28.751L26.975,28.725L27.021,28.699L27.067,28.672L27.113,28.645L27.159,28.617L27.204,28.589L27.248,28.559L27.293,28.53L27.337,28.5L27.38,28.469L27.424,28.438L27.466,28.406L27.509,28.374L27.551,28.342L27.593,28.309L27.634,28.275L27.675,28.241L27.716,28.206L27.756,28.171L27.796,28.136L27.835,28.1L27.874,28.063L27.913,28.027L27.951,27.989L27.989,27.952L28.027,27.914L28.064,27.875L28.1,27.837L28.137,27.797L28.173,27.758L28.208,27.718L28.243,27.678L28.278,27.637L28.312,27.596L28.346,27.555L28.379,27.514L28.445,27.429L28.508,27.344L28.571,27.257L28.631,27.169L28.689,27.081L28.746,26.991L28.801,26.901L28.855,26.81L28.906,26.718L28.955,26.625L29.003,26.532L29.049,26.439L29.093,26.344L29.135,26.25L29.175,26.155L29.213,26.06L29.249,25.965L29.283,25.87L29.316,25.774L29.346,25.679L29.374,25.584L29.4,25.489L29.424,25.395L29.446,25.3L29.466,25.207L29.484,25.113L29.5,25.021L29.514,24.928L29.525,24.846L29.536,24.764L29.545,24.68L29.553,24.597L29.561,24.513L29.567,24.429L29.573,24.344L29.578,24.259L29.582,24.174L29.585,24.088L29.587,24.002L29.588,23.916L29.588,23.83L29.588,23.744L29.586,23.657L29.583,23.57L29.58,23.483L29.576,23.396L29.57,23.308L29.564,23.221L29.557,23.133L29.548,23.046L29.539,22.958L29.529,22.87L29.518,22.783L29.506,22.695L29.493,22.607L29.479,22.52L29.464,22.432L29.448,22.345L29.432,22.257L29.414,22.17L29.395,22.082L29.375,21.995L29.355,21.908L29.333,21.822L29.311,21.735L29.287,21.649L29.262,21.563L29.237,21.477L29.21,21.391L29.183,21.306L29.154,21.221L29.151,21.209L29.125,21.136L29.095,21.051L29.064,20.967L29.032,20.883L28.999,20.8L28.965,20.716L28.93,20.634L28.894,20.551L28.857,20.47L28.819,20.388L28.78,20.307L28.741,20.227L28.7,20.147L28.658,20.067L28.615,19.988L28.571,19.91L28.526,19.832L28.48,19.755L28.433,19.678L28.386,19.602L28.337,19.527L28.287,19.452L28.236,19.378L28.184,19.304L28.131,19.232L28.078,19.16L28.023,19.088L27.967,19.017L27.91,18.947L27.852,18.878L27.793,18.81L27.734,18.742L27.673,18.675L27.611,18.609L27.548,18.544L27.484,18.479L27.419,18.416L27.353,18.353L27.286,18.291L27.218,18.23L27.149,18.17L27.079,18.111L27.008,18.052L26.936,17.995L26.863,17.939L26.789,17.883L26.713,17.828L26.637,17.775L26.56,17.722L26.481,17.671L26.402,17.62L26.321,17.57L26.239,17.522L26.156,17.474L26.072,17.428L25.987,17.382L25.901,17.338L25.814,17.295L25.726,17.253L25.636,17.212L25.545,17.172L25.454,17.133L25.361,17.096L25.266,17.059L25.171,17.024L25.074,16.99L24.977,16.957L24.878,16.926L24.778,16.896L24.676,16.867L24.574,16.839L24.47,16.812L24.365,16.787L24.258,16.763L24.151,16.741L24.042,16.72L23.932,16.7L23.82,16.682L23.708,16.665L23.594,16.65L23.478,16.636L23.362,16.623L23.244,16.612L23.124,16.603L23.004,16.595L22.9,16.589L22.797,16.585L22.694,16.582L22.592,16.58L22.489,16.58L22.387,16.581L22.285,16.583L22.184,16.587L22.083,16.592L21.982,16.598L21.882,16.605L21.782,16.614L21.682,16.623L21.583,16.635L21.484,16.647L21.385,16.66L21.287,16.675L21.189,16.691L21.092,16.708L20.995,16.727L20.898,16.746L20.802,16.767L20.706,16.789L20.611,16.812L20.516,16.837L20.422,16.862L20.328,16.889L20.235,16.917L20.142,16.946L20.05,16.976L19.958,17.007L19.867,17.04L19.776,17.074L19.686,17.109L19.596,17.144L19.507,17.182L19.418,17.22L19.33,17.259L19.242,17.3L19.155,17.341L19.069,17.384L18.983,17.428L18.898,17.473L18.813,17.519L18.729,17.566L18.646,17.614L18.563,17.664L18.481,17.714L18.399,17.766L18.318,17.818L18.238,17.872L18.158,17.927L18.08,17.983L18.001,18.04L17.924,18.097L17.847,18.157L17.771,18.217L17.695,18.278L17.621,18.34L17.546,18.403L17.473,18.468L17.401,18.533L17.329,18.599L17.258,18.667L17.187,18.735L17.118,18.805L17.083,18.84L17.049,18.875L16.981,18.946L16.913,19.019L16.846,19.092L16.78,19.166L16.715,19.242L16.651,19.318L16.587,19.396L16.524,19.474L16.462,19.553L16.401,19.634L16.341,19.716L16.282,19.798L16.223,19.882L16.165,19.966L16.109,20.052L16.053,20.138L15.998,20.226L15.944,20.315L15.891,20.404L15.839,20.495L15.787,20.587L15.737,20.679L15.688,20.773L15.639,20.868L15.592,20.964L15.545,21.06L15.5,21.158L15.455,21.257L15.412,21.356L15.37,21.457L15.328,21.559L15.288,21.661L15.249,21.765L15.21,21.87L15.173,21.976L15.137,22.082L15.102,22.19L15.068,22.299L15.035,22.408L15.003,22.519L14.973,22.63L14.943,22.743L14.915,22.857L14.888,22.971L14.862,23.087L14.837,23.203L14.814,23.321L14.791,23.439L14.77,23.559L14.75,23.679L14.731,23.801L14.714,23.923L14.698,24.047L14.683,24.171L14.669,24.296L14.657,24.423L14.646,24.55L14.636,24.678L14.628,24.807L14.62,24.937L14.615,25.067L14.612,25.177L14.61,25.285L14.611,25.394L14.612,25.43L14.613,25.502L14.616,25.61L14.622,25.718L14.629,25.827L14.638,25.935L14.648,26.042L14.661,26.15L14.675,26.258L14.69,26.366L14.708,26.473L14.727,26.581L14.748,26.688L14.771,26.795L14.795,26.902L14.821,27.009L14.849,27.115L14.878,27.221L14.909,27.328L14.942,27.434L14.976,27.539L15.012,27.645L15.049,27.75L15.088,27.855L15.129,27.959L15.171,28.064L15.214,28.168L15.26,28.271L15.307,28.375L15.355,28.478L15.405,28.58L15.456,28.682L15.509,28.784L15.563,28.885L15.619,28.986L15.677,29.086L15.735,29.186L15.795,29.286L15.857,29.384L15.92,29.483L15.984,29.58L16.05,29.678L16.117,29.774L16.186,29.87L16.256,29.966L16.327,30.06L16.4,30.154L16.473,30.248L16.549,30.34L16.625,30.432L16.703,30.524L16.782,30.614L16.862,30.704L16.943,30.793L17.026,30.881L17.109,30.969L17.194,31.055L17.211,31.072L17.28,31.141L17.367,31.227L17.454,31.311L17.543,31.395L17.633,31.478L17.724,31.56L17.817,31.64L17.91,31.72L18.004,31.799L18.1,31.877L18.196,31.954L18.293,32.03L18.392,32.105L18.491,32.179L18.591,32.252L18.692,32.324L18.794,32.395L18.897,32.464L19.001,32.533L19.106,32.6L19.211,32.667L19.318,32.732L19.425,32.795L19.533,32.858L19.642,32.92L19.751,32.98L19.862,33.039L19.973,33.096L20.084,33.153L20.197,33.208L20.31,33.262L20.424,33.315L20.538,33.366L20.653,33.416L20.769,33.464L20.885,33.511L21.002,33.557L21.119,33.602L21.237,33.645L21.356,33.686L21.475,33.727L21.594,33.765L21.714,33.803L21.835,33.838L21.956,33.873L22.077,33.906L22.199,33.937L22.321,33.967L22.444,33.995L22.567,34.022L22.69,34.047L22.814,34.071L22.938,34.093L23.062,34.113L23.187,34.132L23.312,34.149L23.437,34.165L23.516,34.174L23.563,34.179L23.688,34.192L23.814,34.203L23.941,34.212L24.067,34.22L24.194,34.226L24.321,34.231L24.448,34.233L24.575,34.234L24.703,34.233L24.83,34.231L24.959,34.227L25.143,34.218L25.325,34.208L25.505,34.196L25.682,34.183L25.856,34.167L26.028,34.151L26.198,34.132L26.365,34.112L26.529,34.09L26.692,34.067L26.851,34.042L27.009,34.015L27.164,33.987L27.317,33.958L27.467,33.927L27.615,33.895L27.761,33.861L27.904,33.826L28.045,33.789L28.184,33.752L28.321,33.713L28.456,33.672L28.588,33.631L28.718,33.588L28.846,33.544L28.972,33.498L29.096,33.452L29.218,33.404L29.338,33.355L29.456,33.306L29.571,33.255L29.685,33.203L29.797,33.149L29.907,33.095L30.015,33.04L30.122,32.984L30.226,32.927L30.329,32.869L30.43,32.81L30.529,32.75L30.626,32.689L30.722,32.627L30.816,32.564L30.908,32.5L30.999,32.435L31.088,32.37L31.176,32.304L31.262,32.236L31.346,32.168L31.429,32.099L31.479,32.057L31.511,32.03L31.591,31.96L31.67,31.888L31.748,31.816L31.824,31.744L31.899,31.67L31.972,31.596L32.044,31.521L32.115,31.445L32.184,31.368L32.253,31.29L32.32,31.212L32.385,31.133L32.45,31.053L32.513,30.973L32.575,30.892L32.636,30.81L32.696,30.727L32.755,30.644L32.812,30.559L32.869,30.475L32.924,30.389L32.978,30.303L33.031,30.216L33.083,30.129L33.134,30.04L33.184,29.951L33.233,29.862L33.28,29.772L33.327,29.681L33.373,29.59L33.418,29.498L33.461,29.405L33.504,29.312L33.546,29.219L33.587,29.124L33.626,29.03L33.665,28.935L33.703,28.839L33.74,28.743L33.776,28.646L33.811,28.549L33.845,28.451L33.878,28.353L33.91,28.255L33.942,28.156L33.972,28.057L34.002,27.957L34.031,27.857L34.058,27.757L34.085,27.657L34.111,27.556L34.137,27.455L34.161,27.353L34.185,27.252L34.208,27.15L34.23,27.048L34.251,26.946L34.271,26.843L34.291,26.741L34.31,26.638L34.328,26.535L34.345,26.433L34.362,26.33L34.378,26.227L34.393,26.124L34.408,26.021L34.421,25.917L34.434,25.814L34.447,25.711L34.458,25.608L34.469,25.506L34.48,25.403L34.49,25.3L34.499,25.198L34.507,25.095L34.515,24.993L34.522,24.894L34.528,24.794L34.533,24.694L34.537,24.594L34.539,24.491L34.54,24.387L34.54,24.281L34.539,24.174L34.536,24.065L34.532,23.955L34.527,23.844L34.52,23.731L34.512,23.617L34.503,23.502L34.493,23.385L34.48,23.267L34.467,23.149L34.452,23.029L34.436,22.908L34.418,22.786L34.399,22.664L34.379,22.54L34.357,22.416L34.334,22.29L34.309,22.164L34.282,22.038L34.255,21.91L34.226,21.782L34.195,21.653L34.163,21.524L34.129,21.394L34.094,21.264L34.057,21.133L34.019,21.002L33.98,20.871L33.939,20.739L33.896,20.607L33.852,20.474L33.806,20.342L33.759,20.209L33.71,20.076L33.66,19.943L33.608,19.809L33.555,19.676L33.5,19.543L33.443,19.409L33.385,19.276L33.326,19.143L33.264,19.01L33.202,18.877L33.137,18.745L33.072,18.612L33.004,18.48L32.935,18.348L32.865,18.217L32.792,18.086L32.719,17.955L32.643,17.825L32.567,17.695L32.488,17.565L32.408,17.437L32.326,17.308L32.243,17.181L32.158,17.054L32.072,16.927L31.984,16.802L31.894,16.677L31.803,16.552L31.71,16.429L31.615,16.306L31.519,16.184L31.421,16.063L31.322,15.943L31.221,15.824L31.118,15.706L31.014,15.589L30.908,15.473L30.801,15.358L30.691,15.244L30.581,15.131L30.466,15.017L30.411,14.963L30.354,14.908L30.296,14.853L30.238,14.798L30.179,14.744L30.158,14.725L30.121,14.69L30.061,14.636L30.002,14.583L29.942,14.529L29.881,14.476L29.82,14.424L29.759,14.371L29.697,14.319L29.635,14.268L29.572,14.216L29.509,14.166L29.445,14.115L29.382,14.065L29.317,14.015L29.252,13.965L29.187,13.916L29.121,13.867L29.055,13.818L28.989,13.77L28.922,13.722L28.854,13.675L28.787,13.628L28.718,13.581L28.649,13.535L28.58,13.489L28.511,13.443L28.44,13.398L28.37,13.353L28.299,13.309L28.227,13.265L28.156,13.221L28.083,13.178L28.01,13.135L27.937,13.093L27.863,13.051L27.789,13.009L27.715,12.968L27.639,12.927L27.564,12.887L27.488,12.847L27.411,12.807L27.334,12.768L27.257,12.73L27.179,12.692L27.1,12.654L27.021,12.617L26.942,12.58L26.862,12.543L26.782,12.507L26.701,12.472L26.62,12.437L26.538,12.403L26.455,12.369L26.373,12.335L26.289,12.302L26.206,12.269L26.121,12.237L26.036,12.206L25.951,12.174L25.865,12.144L25.779,12.114L25.692,12.084L25.605,12.055L25.517,12.026L25.428,11.998L25.34,11.971L25.25,11.944L25.16,11.917L25.07,11.891L24.979,11.866L24.887,11.841L24.795,11.816L24.703,11.793L24.609,11.769L24.516,11.747L24.422,11.725L24.327,11.703L24.231,11.682L24.136,11.661L24.039,11.642L23.942,11.622L23.845,11.604L23.747,11.585L23.648,11.568L23.549,11.551L23.449,11.535L23.349,11.519L23.248,11.504L23.147,11.489L23.045,11.476L22.943,11.462L22.85,11.451L22.758,11.441L22.666,11.431L22.575,11.422L22.483,11.414L22.392,11.407L22.301,11.401L22.21,11.395L22.119,11.39L22.028,11.386L21.938,11.382L21.847,11.38L21.757,11.378L21.667,11.377L21.577,11.376L21.488,11.376L21.398,11.377L21.309,11.379L21.219,11.382L21.13,11.385L21.041,11.389L20.953,11.393L20.864,11.399L20.776,11.405L20.687,11.412L20.599,11.419L20.511,11.427L20.423,11.436L20.336,11.446L20.248,11.456L20.161,11.467L20.074,11.479L19.987,11.491L19.9,11.504L19.813,11.518L19.727,11.532L19.64,11.547L19.554,11.563L19.468,11.579L19.382,11.596L19.297,11.614L19.211,11.632L19.126,11.651L19.041,11.671L18.956,11.691L18.871,11.712L18.786,11.734L18.702,11.756L18.618,11.779L18.534,11.802L18.45,11.826L18.366,11.851L18.283,11.876L18.199,11.902L18.116,11.929L18.033,11.956L17.951,11.984L17.868,12.012L17.786,12.041L17.704,12.071L17.622,12.101L17.54,12.132L17.458,12.163L17.377,12.195L17.296,12.228L17.215,12.261L17.134,12.295L17.054,12.329L16.974,12.364L16.894,12.4L16.814,12.436L16.734,12.473L16.655,12.51L16.576,12.548L16.497,12.586L16.418,12.625L16.339,12.664L16.261,12.704L16.183,12.745L16.105,12.786L16.028,12.828L15.951,12.87L15.873,12.913L15.797,12.956L15.72,13L15.644,13.044L15.568,13.089L15.492,13.134L15.416,13.18L15.341,13.226L15.266,13.273L15.192,13.321L15.117,13.368L15.043,13.417L14.969,13.466L14.895,13.515L14.822,13.565L14.749,13.615L14.676,13.666L14.604,13.717L14.531,13.769L14.459,13.821L14.388,13.874L14.316,13.927L14.245,13.981L14.175,14.035L14.104,14.09L14.034,14.145L13.964,14.2L13.895,14.256L13.826,14.312L13.757,14.369L13.688,14.426L13.62,14.484L13.552,14.542L13.484,14.601L13.417,14.659L13.35,14.719L13.284,14.778L13.217,14.839L13.151,14.899L13.086,14.96L13.021,15.021L12.956,15.083L12.891,15.145L12.827,15.208L12.763,15.271L12.7,15.334L12.637,15.397L12.574,15.461L12.511,15.526L12.449,15.59L12.388,15.655L12.327,15.721L12.297,15.752L12.266,15.787L12.205,15.853L12.145,15.919L12.086,15.984L11.966,16.12L11.849,16.255L11.733,16.392L11.619,16.53L11.507,16.669L11.396,16.81L11.287,16.951L11.18,17.094L11.074,17.238L10.97,17.383L10.868,17.528L10.767,17.675L10.668,17.823L10.571,17.971L10.476,18.121L10.383,18.271L10.291,18.422L10.201,18.574L10.114,18.726L10.028,18.88L9.944,19.033L9.862,19.188L9.781,19.343L9.703,19.499L9.627,19.655L9.553,19.811L9.481,19.968L9.41,20.126L9.341,20.286L9.309,20.362L9.276,20.442L9.244,20.521L9.212,20.6L9.181,20.679L9.15,20.759L9.12,20.838L9.09,20.918L9.061,20.997L9.032,21.077L9.004,21.156L8.976,21.236L8.949,21.316L8.923,21.395L8.897,21.475L8.872,21.555L8.847,21.634L8.822,21.714L8.798,21.794L8.775,21.873L8.752,21.953L8.73,22.033L8.709,22.113L8.688,22.192L8.667,22.272L8.647,22.351L8.628,22.431L8.609,22.511L8.591,22.59L8.573,22.669L8.556,22.749L8.539,22.828L8.523,22.907L8.507,22.987L8.493,23.066L8.478,23.145L8.464,23.224L8.451,23.303L8.438,23.381L8.426,23.46L8.415,23.539L8.404,23.617L8.393,23.695L8.384,23.774L8.374,23.852L8.366,23.93L8.365,23.939L8.358,24.008L8.35,24.086L8.343,24.163L8.336,24.241L8.33,24.318L8.325,24.395L8.32,24.472L8.316,24.549L8.312,24.626L8.309,24.703L8.307,24.779L8.305,24.855L8.303,24.932L8.303,25.004L8.303,25.08L8.304,25.158L8.307,25.24L8.311,25.327L8.316,25.418L8.323,25.513L8.331,25.612L8.34,25.715L8.352,25.822L8.364,25.932L8.379,26.046L8.395,26.162L8.413,26.282L8.432,26.406L8.454,26.532L8.477,26.66L8.502,26.792L8.528,26.926L8.557,27.063L8.587,27.202L8.62,27.344L8.654,27.488L8.691,27.634L8.729,27.782L8.769,27.933L8.812,28.085L8.856,28.239L8.903,28.394L8.952,28.552L9.003,28.711L9.056,28.871L9.111,29.033L9.169,29.197L9.228,29.361L9.291,29.527L9.355,29.694L9.422,29.862L9.491,30.031L9.562,30.201L9.636,30.371L9.712,30.543L9.79,30.715L9.871,30.887L9.956,31.062L9.998,31.147L10.041,31.234L10.085,31.321L10.129,31.408L10.175,31.495L10.221,31.582L10.258,31.652L10.267,31.67L10.314,31.757L10.361,31.844L10.409,31.932L10.458,32.02L10.507,32.107L10.557,32.195L10.608,32.282L10.659,32.37L10.711,32.458L10.764,32.545L10.817,32.633L10.871,32.72L10.926,32.808L10.982,32.895L11.038,32.982L11.094,33.069L11.152,33.156L11.21,33.243L11.269,33.33L11.328,33.417L11.389,33.504L11.45,33.59L11.511,33.677L11.574,33.763L11.637,33.849L11.701,33.935L11.765,34.021L11.83,34.107L11.896,34.192L11.963,34.277L12.031,34.362L12.099,34.447L12.168,34.532L12.237,34.616L12.308,34.7L12.379,34.784L12.451,34.868L12.524,34.951L12.597,35.034L12.671,35.117L12.746,35.199L12.822,35.282L12.898,35.364L12.976,35.445L13.054,35.527L13.132,35.608L13.212,35.688L13.293,35.769L13.374,35.849L13.456,35.928L13.539,36.008L13.622,36.087L13.707,36.165L13.792,36.243L13.878,36.321L13.965,36.398L14.053,36.475L14.141,36.552L14.23,36.628L14.321,36.704L14.383,36.755L14.412,36.779L14.503,36.854L14.596,36.929L14.689,37.004L14.783,37.078L14.878,37.151L14.974,37.224L15.071,37.296L15.168,37.368L15.267,37.44L15.366,37.511L15.467,37.581L15.568,37.651L15.67,37.721L15.773,37.79L15.877,37.858L15.982,37.926L16.088,37.993L16.194,38.06L16.302,38.126L16.411,38.192L16.52,38.257L16.631,38.321L16.742,38.385L16.855,38.448L16.968,38.51L17.083,38.572L17.198,38.633L17.314,38.694L17.432,38.754L17.55,38.813L17.67,38.872L17.79,38.93L17.911,38.987L18.034,39.044L18.157,39.1L18.282,39.155L18.407,39.209L18.534,39.263L18.661,39.316L18.79,39.368L18.92,39.42L19.05,39.47L19.182,39.52L19.315,39.569L19.449,39.618L19.584,39.665L19.72,39.712L19.858,39.758L19.996,39.803L20.136,39.847L20.276,39.891L20.418,39.933L20.562,39.975L20.705,40.017L20.85,40.057L20.996,40.097L21.143,40.136L21.292,40.174L21.441,40.211L21.592,40.247L21.744,40.282L21.897,40.316L22.052,40.35L22.207,40.382L22.364,40.413L22.522,40.444L22.681,40.473L22.842,40.502L23.003,40.529L23.166,40.555L23.33,40.581L23.496,40.605L23.662,40.628L23.83,40.65L23.999,40.671L24.17,40.691L24.342,40.71L24.514,40.728L24.689,40.745L24.864,40.761L25.041,40.775L25.219,40.788L25.398,40.8L25.579,40.811L25.761,40.821L25.944,40.83L26.129,40.837L26.315,40.844L26.502,40.849L26.691,40.853L26.88,40.855L27.072,40.856L27.264,40.856L27.458,40.855L27.653,40.853L27.85,40.849L28.048,40.844L28.247,40.838L28.448,40.83L28.65,40.821L28.855,40.81L29.061,40.798L29.267,40.785L29.473,40.77L29.679,40.753L29.885,40.735L30.092,40.716L30.299,40.695L30.506,40.672L30.713,40.649L30.92,40.623L31.127,40.596L31.335,40.568L31.542,40.538L31.75,40.507L31.957,40.474L32.164,40.44L32.372,40.405L32.579,40.368L32.786,40.329L32.993,40.289L33.2,40.248L33.407,40.205L33.614,40.161L33.82,40.116L34.026,40.069L34.232,40.02L34.438,39.971L34.644,39.919L34.849,39.867L34.859,39.864L35.054,39.814L35.259,39.759L35.464,39.703L35.668,39.646L35.871,39.587L36.075,39.527L36.278,39.466L36.48,39.403L36.682,39.339L36.884,39.273L37.085,39.207L37.286,39.138L37.486,39.069L37.685,38.998L37.884,38.926L38.083,38.853L38.28,38.778L38.477,38.702L38.674,38.624L38.87,38.546L39.065,38.466L39.259,38.385L39.453,38.302L39.645,38.218L39.838,38.133L40.029,38.047L40.219,37.959L40.409,37.87L40.598,37.78L40.786,37.689L40.973,37.596L41.159,37.503L41.344,37.408L41.528,37.311L41.712,37.214L41.894,37.115L42.075,37.015L42.256,36.914L42.435,36.812L42.613,36.708L42.79,36.604L42.966,36.498L43.141,36.391L43.315,36.282L43.487,36.173L43.659,36.063L43.829,35.951L43.998,35.838L44.165,35.724L44.332,35.609L44.497,35.493L44.661,35.375L44.824,35.257L44.985,35.137L45.145,35.017L45.303,34.895L45.461,34.772L45.616,34.648L45.771,34.523L45.834,34.471L45.924,34.397L46.076,34.27L46.226,34.142L46.375,34.013L46.522,33.883L46.668,33.752L46.812,33.62L46.955,33.487L47.096,33.353L47.235,33.217L47.373,33.081L47.509,32.944L47.644,32.805L47.777,32.666L47.908,32.526L48.038,32.384L48.166,32.242L48.292,32.099L48.416,31.955L48.539,31.809L48.66,31.663L48.779,31.516L48.896,31.368L49.012,31.218L49.125,31.068L49.237,30.917L49.347,30.765L49.455,30.611L49.508,30.536L49.561,30.459L49.613,30.381L49.665,30.304L49.716,30.226L49.767,30.148L49.817,30.07L49.867,29.991L49.916,29.913L49.965,29.834L50.014,29.755L50.062,29.675L50.109,29.596L50.156,29.516L50.202,29.436L50.248,29.356L50.293,29.275L50.323,29.221L50.338,29.194L50.383,29.114L50.426,29.032L50.47,28.951L50.514,28.867L51.772,28.446L52.192,29.704L52.149,29.795L52.104,29.888L52.058,29.982L52.012,30.074L51.996,30.105L51.965,30.167L51.917,30.259L51.869,30.351L51.821,30.443L51.771,30.535L51.722,30.626L51.671,30.717L51.62,30.807L51.569,30.898L51.517,30.988L51.464,31.078L51.411,31.168L51.358,31.257L51.304,31.346L51.249,31.435L51.194,31.524L51.138,31.612L51.081,31.701L50.968,31.875L50.851,32.049L50.733,32.223L50.613,32.395L50.491,32.565L50.366,32.735L50.24,32.904L50.112,33.071L49.982,33.238L49.85,33.403L49.716,33.567L49.58,33.73L49.443,33.892L49.304,34.052L49.162,34.212L49.019,34.37L48.875,34.528L48.728,34.684L48.58,34.838L48.43,34.992L48.279,35.145L48.126,35.296L47.971,35.446L47.814,35.595L47.656,35.743L47.497,35.889L47.336,36.035L47.24,36.119L47.173,36.179L47.008,36.321L46.842,36.463L46.675,36.603L46.506,36.742L46.336,36.879L46.164,37.016L45.991,37.151L45.817,37.285L45.641,37.418L45.464,37.549L45.285,37.679L45.105,37.808L44.924,37.936L44.742,38.062L44.558,38.187L44.374,38.311L44.188,38.434L44,38.555L43.812,38.675L43.623,38.794L43.432,38.911L43.24,39.027L43.048,39.142L42.854,39.256L42.659,39.368L42.463,39.479L42.266,39.588L42.068,39.697L41.869,39.804L41.669,39.909L41.468,40.013L41.266,40.116L41.064,40.218L40.86,40.318L40.656,40.417L40.451,40.514L40.244,40.61L40.038,40.705L39.83,40.799L39.621,40.891L39.412,40.981L39.202,41.07L38.991,41.158L38.78,41.245L38.568,41.33L38.355,41.413L38.141,41.496L37.927,41.576L37.713,41.656L37.497,41.734L37.282,41.81L37.065,41.885L36.848,41.959L36.631,42.031L36.413,42.102L36.194,42.171L35.975,42.239L35.756,42.306L35.546,42.368L35.536,42.371L35.315,42.433L35.094,42.495L34.873,42.554L34.651,42.613L34.429,42.669L34.207,42.725L33.985,42.778L33.762,42.83L33.538,42.881L33.315,42.93L33.091,42.978L32.868,43.024L32.643,43.069L32.419,43.112L32.195,43.153L31.97,43.193L31.745,43.232L31.521,43.268L31.296,43.304L31.071,43.337L30.846,43.369L30.621,43.4L30.395,43.429L30.17,43.456L29.945,43.482L29.72,43.506L29.495,43.528L29.27,43.549L29.045,43.568L28.821,43.586L28.601,43.601L28.383,43.615L28.166,43.628L27.951,43.639L27.737,43.649L27.523,43.657L27.311,43.664L27.1,43.67L26.891,43.674L26.682,43.677L26.475,43.678L26.268,43.678L26.063,43.676L25.859,43.674L25.657,43.669L25.455,43.664L25.254,43.657L25.055,43.649L24.857,43.639L24.66,43.628L24.464,43.616L24.269,43.603L24.075,43.588L23.883,43.572L23.691,43.555L23.501,43.536L23.312,43.516L23.124,43.495L22.937,43.472L22.751,43.449L22.566,43.424L22.382,43.398L22.2,43.371L22.018,43.342L21.838,43.312L21.659,43.281L21.481,43.249L21.304,43.216L21.128,43.182L20.953,43.146L20.779,43.109L20.607,43.071L20.435,43.032L20.265,42.992L20.095,42.951L19.927,42.909L19.761,42.865L19.76,42.865L19.594,42.82L19.429,42.774L19.265,42.726L19.102,42.678L18.941,42.629L18.78,42.578L18.621,42.527L18.463,42.474L18.305,42.421L18.149,42.366L17.994,42.311L17.84,42.254L17.687,42.197L17.535,42.138L17.384,42.079L17.235,42.019L17.086,41.958L16.938,41.895L16.792,41.832L16.646,41.768L16.502,41.703L16.359,41.638L16.216,41.571L16.075,41.504L15.935,41.435L15.796,41.366L15.658,41.296L15.521,41.225L15.385,41.153L15.25,41.081L15.116,41.008L14.984,40.934L14.852,40.859L14.721,40.783L14.592,40.707L14.463,40.63L14.335,40.552L14.209,40.474L14.083,40.394L13.959,40.314L13.836,40.234L13.713,40.152L13.592,40.07L13.471,39.988L13.352,39.905L13.234,39.821L13.117,39.736L13,39.651L12.885,39.565L12.771,39.479L12.657,39.392L12.545,39.305L12.434,39.216L12.399,39.188L12.324,39.128L12.215,39.038L12.107,38.948L12,38.857L11.894,38.766L11.789,38.675L11.685,38.583L11.583,38.49L11.481,38.397L11.38,38.304L11.28,38.21L11.181,38.116L11.082,38.021L10.985,37.926L10.889,37.83L10.794,37.735L10.7,37.638L10.606,37.542L10.514,37.445L10.423,37.347L10.332,37.25L10.243,37.152L10.154,37.054L10.066,36.955L9.98,36.856L9.894,36.757L9.809,36.658L9.725,36.558L9.642,36.458L9.56,36.358L9.478,36.258L9.398,36.157L9.318,36.056L9.24,35.955L9.162,35.854L9.085,35.753L9.009,35.651L8.934,35.55L8.86,35.448L8.787,35.346L8.714,35.244L8.643,35.142L8.572,35.039L8.502,34.937L8.433,34.834L8.365,34.732L8.297,34.629L8.231,34.527L8.165,34.424L8.1,34.321L8.036,34.218L7.972,34.116L7.91,34.013L7.848,33.91L7.787,33.807L7.727,33.704L7.668,33.602L7.61,33.499L7.552,33.396L7.495,33.294L7.439,33.191L7.428,33.171L7.384,33.088L7.33,32.986L7.276,32.883L7.223,32.781L7.171,32.679L7.12,32.576L7.069,32.473L6.971,32.271L6.875,32.068L6.783,31.866L6.693,31.664L6.606,31.464L6.521,31.264L6.44,31.066L6.361,30.868L6.285,30.672L6.212,30.477L6.141,30.283L6.073,30.091L6.007,29.899L5.944,29.71L5.883,29.522L5.825,29.335L5.769,29.151L5.716,28.968L5.665,28.786L5.617,28.607L5.57,28.43L5.526,28.254L5.485,28.081L5.445,27.91L5.408,27.741L5.372,27.574L5.339,27.409L5.308,27.247L5.279,27.087L5.253,26.93L5.228,26.775L5.205,26.622L5.184,26.472L5.165,26.325L5.148,26.18L5.132,26.038L5.119,25.898L5.108,25.761L5.098,25.627L5.09,25.495L5.084,25.365L5.08,25.239L5.078,25.114L5.077,24.996L5.078,24.892L5.08,24.791L5.082,24.69L5.085,24.59L5.089,24.489L5.093,24.388L5.099,24.287L5.105,24.186L5.112,24.085L5.119,23.984L5.128,23.884L5.137,23.783L5.146,23.682L5.156,23.593L5.157,23.581L5.168,23.48L5.181,23.379L5.193,23.279L5.207,23.178L5.221,23.077L5.236,22.977L5.252,22.876L5.268,22.775L5.286,22.675L5.303,22.574L5.322,22.474L5.341,22.374L5.361,22.273L5.381,22.173L5.403,22.073L5.425,21.973L5.447,21.873L5.47,21.773L5.494,21.673L5.519,21.573L5.544,21.474L5.57,21.374L5.597,21.274L5.624,21.175L5.652,21.076L5.68,20.977L5.709,20.878L5.739,20.779L5.77,20.68L5.801,20.581L5.832,20.482L5.865,20.384L5.898,20.286L5.931,20.187L5.966,20.089L6,19.991L6.036,19.894L6.072,19.796L6.109,19.698L6.146,19.601L6.184,19.504L6.222,19.407L6.261,19.31L6.301,19.213L6.341,19.117L6.383,19.018L6.466,18.828L6.552,18.637L6.64,18.446L6.731,18.256L6.824,18.067L6.919,17.879L7.016,17.692L7.116,17.505L7.218,17.32L7.322,17.135L7.428,16.951L7.537,16.769L7.647,16.587L7.76,16.407L7.875,16.227L7.992,16.049L8.111,15.872L8.232,15.696L8.356,15.521L8.481,15.347L8.608,15.175L8.738,15.004L8.869,14.835L9.002,14.666L9.138,14.499L9.275,14.334L9.414,14.17L9.555,14.007L9.697,13.848L9.771,13.766L9.843,13.687L9.917,13.607L9.955,13.566L9.99,13.529L10.065,13.45L10.139,13.373L10.215,13.295L10.29,13.218L10.366,13.141L10.443,13.065L10.52,12.99L10.598,12.914L10.676,12.839L10.754,12.765L10.833,12.691L10.912,12.617L10.992,12.544L11.072,12.471L11.153,12.399L11.234,12.327L11.316,12.256L11.397,12.185L11.48,12.115L11.563,12.045L11.646,11.976L11.73,11.907L11.814,11.838L11.898,11.77L11.983,11.703L12.069,11.636L12.155,11.57L12.241,11.504L12.328,11.438L12.415,11.374L12.502,11.309L12.59,11.245L12.679,11.182L12.767,11.119L12.857,11.057L12.946,10.996L13.036,10.934L13.126,10.874L13.217,10.814L13.308,10.754L13.4,10.696L13.492,10.637L13.584,10.58L13.677,10.522L13.77,10.466L13.864,10.41L13.958,10.355L14.052,10.3L14.147,10.246L14.242,10.192L14.337,10.139L14.433,10.087L14.529,10.035L14.626,9.984L14.723,9.934L14.82,9.884L14.918,9.835L15.016,9.786L15.114,9.739L15.213,9.691L15.312,9.645L15.412,9.599L15.512,9.554L15.612,9.509L15.713,9.466L15.813,9.422L15.915,9.38L16.016,9.338L16.118,9.297L16.221,9.257L16.323,9.217L16.426,9.178L16.529,9.14L16.633,9.103L16.737,9.066L16.841,9.03L16.946,8.995L17.051,8.96L17.156,8.927L17.262,8.894L17.368,8.861L17.474,8.83L17.58,8.799L17.687,8.769L17.794,8.74L17.901,8.712L18.009,8.684L18.117,8.658L18.225,8.632L18.334,8.607L18.443,8.582L18.552,8.559L18.661,8.536L18.771,8.514L18.881,8.493L18.991,8.473L19.102,8.454L19.212,8.435L19.323,8.417L19.435,8.401L19.546,8.385L19.658,8.37L19.77,8.355L19.882,8.342L19.994,8.33L20.107,8.318L20.22,8.307L20.333,8.298L20.447,8.289L20.56,8.281L20.674,8.274L20.788,8.268L20.902,8.263L21.017,8.258L21.131,8.255L21.246,8.252L21.361,8.251L21.476,8.25L21.592,8.251Z" style="fill:rgb(185,185,185);"/>
        </g>
    </g>
</svg>
